<?xml version="1.0" standalone="no"?>
<!DOCTYPE svg PUBLIC "-//W3C//DTD SVG 20010904//EN"
 "http://www.w3.org/TR/2001/REC-SVG-20010904/DTD/svg10.dtd">
<svg version="1.0" xmlns="http://www.w3.org/2000/svg"
 width="640.000000pt" height="640.000000pt" viewBox="0 0 640.000000 640.000000"
 preserveAspectRatio="xMidYMid meet">
<metadata>
Created by potrace 1.11, written by Peter Selinger 2001-2013
</metadata>
<g transform="translate(0.000000,640.000000) scale(0.100000,-0.100000)"
fill="#000000" stroke="none">
<path d="M5769 5937 c-30 -29 -82 -76 -115 -105 -32 -30 -97 -89 -144 -131
-120 -110 -202 -184 -304 -276 -49 -44 -101 -91 -116 -105 -15 -14 -51 -47
-81 -73 -30 -27 -90 -82 -134 -122 -44 -41 -90 -82 -101 -92 -12 -10 -59 -53
-105 -95 -96 -87 -131 -118 -135 -118 -1 0 -9 6 -16 13 -14 13 -145 127 -188
163 -14 12 -72 63 -130 113 l-105 92 -35 -39 c-87 -97 -130 -148 -129 -157 0
-5 41 -45 92 -87 51 -43 110 -94 132 -113 22 -20 52 -46 67 -59 l28 -23 -132
-133 -132 -133 -55 32 c-203 117 -450 204 -646 227 -24 2 -54 7 -66 9 -24 5
-276 5 -334 0 -16 -1 -50 -5 -75 -9 -25 -4 -58 -10 -75 -12 -64 -10 -194 -47
-285 -81 -521 -193 -928 -651 -1055 -1186 -22 -94 -37 -174 -38 -204 0 -7 -5
-13 -11 -14 -6 0 -18 -2 -26 -3 -8 -2 -36 -6 -61 -9 -111 -14 -234 -61 -344
-133 -164 -107 -277 -259 -325 -439 -29 -107 -23 -274 14 -380 95 -277 342
-477 656 -529 l35 -6 -2 -84 c-3 -151 51 -284 167 -409 158 -169 374 -276 660
-326 147 -26 405 -23 547 8 173 36 325 97 441 175 58 39 70 38 116 -6 48 -45
197 -120 291 -147 122 -35 325 -47 430 -26 257 52 463 186 601 392 46 67 133
253 119 253 -3 0 0 11 5 25 14 36 24 139 23 226 -2 127 -31 244 -89 362 -19
37 -34 73 -34 78 0 6 15 43 34 82 49 103 107 288 121 387 4 24 8 47 11 51 7
12 18 173 18 264 -1 318 -79 605 -237 870 -33 55 -61 103 -63 106 -7 12 286
304 294 294 4 -6 41 -40 82 -75 41 -35 86 -74 100 -87 25 -23 40 -29 40 -15 0
4 15 23 33 42 18 19 53 60 79 90 l47 56 -116 99 c-64 55 -132 114 -151 130
-19 17 -49 42 -66 58 l-31 27 45 43 c25 23 88 81 140 129 52 47 107 97 121
110 14 12 63 57 109 98 46 41 95 86 109 99 14 12 64 57 110 100 46 42 89 81
95 86 6 6 79 71 161 145 83 74 176 160 209 190 32 30 64 60 70 65 6 6 32 29
57 51 l46 42 -26 29 c-101 115 -166 183 -175 183 -6 0 -36 -24 -67 -53z"/>
</g>
</svg>
